<svg data-v-1084b650="" xmlns="http://www.w3.org/2000/svg" viewBox="0 0 300 300"><!----> <!----> <rect data-v-1084b650="" fill="#ffffff" x="0" y="0" width="300px" height="300px" class="logo-background-square"></rect> <!----> <g data-v-1084b650="" id="2cd39912-2e90-874a-60ab-d2e9df0446d2" fill="#000000" transform="matrix(1.899999976158142,0,0,1.899999976158142,88.89994049072266,139.1771240234375)"><path d="M6.02 4.31C5.22 3.61 4.41 3.40 3.33 3.40C2.07 3.40 0.42 3.96 0.42 5.56C0.42 7.13 1.97 7.60 3.28 7.70C4.26 7.76 4.65 7.95 4.65 8.43C4.65 8.93 4.05 9.27 3.40 9.25C2.63 9.24 1.51 8.83 1.02 8.29L0.18 9.51C1.19 10.56 2.28 10.74 3.37 10.74C5.35 10.74 6.34 9.69 6.34 8.47C6.34 6.64 4.69 6.34 3.39 6.26C2.51 6.20 2.10 5.95 2.10 5.50C2.10 5.07 2.55 4.82 3.36 4.82C4.02 4.82 4.58 4.97 5.07 5.43ZM8.13 1.83L8.13 3.61L6.85 3.61L6.85 5.08L8.13 5.08L8.13 8.06C8.13 9.79 9.11 10.64 10.61 10.58C11.13 10.57 11.54 10.49 12.03 10.29L11.55 8.83C11.30 8.96 10.99 9.04 10.72 9.04C10.19 9.04 9.83 8.72 9.83 8.06L9.83 5.08L11.75 5.08L11.75 3.61L9.84 3.61L9.84 1.65ZM18.44 4.55C18.05 3.86 17.16 3.43 16.24 3.43C14.22 3.42 12.64 4.66 12.64 7.04C12.64 9.46 14.15 10.72 16.20 10.71C16.97 10.70 18.05 10.30 18.44 9.49L18.52 10.50L20.13 10.50L20.13 3.60L18.49 3.60ZM16.39 4.96C19.08 4.96 19.08 9.14 16.39 9.14C15.26 9.14 14.35 8.36 14.35 7.04C14.35 5.73 15.26 4.96 16.39 4.96ZM22.27 1.83L22.27 3.61L20.99 3.61L20.99 5.08L22.27 5.08L22.27 8.06C22.27 9.79 23.25 10.64 24.75 10.58C25.27 10.57 25.68 10.49 26.17 10.29L25.69 8.83C25.44 8.96 25.13 9.04 24.86 9.04C24.33 9.04 23.97 8.72 23.97 8.06L23.97 5.08L25.89 5.08L25.89 3.61L23.98 3.61L23.98 1.65ZM32.62 4.31C31.82 3.61 31.01 3.40 29.93 3.40C28.67 3.40 27.02 3.96 27.02 5.56C27.02 7.13 28.57 7.60 29.88 7.70C30.86 7.76 31.25 7.95 31.25 8.43C31.25 8.93 30.65 9.27 30.00 9.25C29.23 9.24 28.11 8.83 27.62 8.29L26.78 9.51C27.79 10.56 28.88 10.74 29.97 10.74C31.95 10.74 32.94 9.69 32.94 8.47C32.94 6.64 31.29 6.34 29.99 6.26C29.11 6.20 28.70 5.95 28.70 5.50C28.70 5.07 29.15 4.82 29.96 4.82C30.62 4.82 31.18 4.97 31.67 5.43ZM38.81 8.50C38.39 8.92 37.84 9.07 37.30 9.07C36.23 9.07 35.34 8.37 35.34 7.06C35.34 5.85 36.18 5.01 37.32 5.01C37.80 5.01 38.30 5.19 38.71 5.56L39.79 4.42C39.03 3.68 38.28 3.40 37.30 3.40C35.29 3.40 33.63 4.61 33.63 7.06C33.63 9.51 35.29 10.71 37.30 10.71C38.32 10.71 39.16 10.40 39.96 9.62ZM44.10 3.46C41.90 3.46 40.53 5.08 40.53 7.06C40.53 9.04 41.87 10.65 44.11 10.65C46.35 10.65 47.71 9.04 47.71 7.06C47.71 5.08 46.30 3.46 44.10 3.46ZM44.11 5.01C45.26 5.01 45.99 6.02 45.99 7.06C45.99 8.11 45.36 9.09 44.11 9.09C42.87 9.09 42.24 8.11 42.24 7.06C42.24 6.02 42.88 5.01 44.11 5.01ZM48.89 0.71L48.89 10.50L50.58 10.50L50.58 0.71ZM52.08 0.71L52.08 10.50L53.77 10.50L53.77 0.71ZM62.12 7.66C62.38 4.82 60.94 3.39 58.63 3.39C56.39 3.39 54.96 4.90 54.96 7C54.96 9.21 56.38 10.68 58.76 10.68C59.81 10.68 61.00 10.32 61.73 9.56L60.63 8.48C60.24 8.89 59.42 9.13 58.79 9.13C57.58 9.13 56.84 8.51 56.73 7.66ZM56.76 6.24C57.01 5.35 57.76 4.90 58.69 4.90C59.67 4.90 60.37 5.35 60.48 6.24ZM68.21 8.50C67.79 8.92 67.24 9.07 66.70 9.07C65.63 9.07 64.74 8.37 64.74 7.06C64.74 5.85 65.58 5.01 66.72 5.01C67.20 5.01 67.70 5.19 68.11 5.56L69.19 4.42C68.43 3.68 67.68 3.40 66.70 3.40C64.69 3.40 63.03 4.61 63.03 7.06C63.03 9.51 64.69 10.71 66.70 10.71C67.72 10.71 68.56 10.40 69.36 9.62ZM70.81 1.83L70.81 3.61L69.52 3.61L69.52 5.08L70.81 5.08L70.81 8.06C70.81 9.79 71.79 10.64 73.29 10.58C73.81 10.57 74.21 10.49 74.70 10.29L74.23 8.83C73.98 8.96 73.67 9.04 73.40 9.04C72.87 9.04 72.51 8.72 72.51 8.06L72.51 5.08L74.42 5.08L74.42 3.61L72.52 3.61L72.52 1.65ZM77.41 3.57L77.41 10.50L75.70 10.50L75.70 3.57ZM75.54 1.65C75.54 2.98 77.56 2.98 77.56 1.65C77.56 0.32 75.54 0.32 75.54 1.65ZM82.35 3.46C80.15 3.46 78.78 5.08 78.78 7.06C78.78 9.04 80.12 10.65 82.36 10.65C84.60 10.65 85.96 9.04 85.96 7.06C85.96 5.08 84.55 3.46 82.35 3.46ZM82.36 5.01C83.51 5.01 84.24 6.02 84.24 7.06C84.24 8.11 83.61 9.09 82.36 9.09C81.12 9.09 80.49 8.11 80.49 7.06C80.49 6.02 81.13 5.01 82.36 5.01ZM93.93 10.50L93.93 6.87C93.93 4.70 92.62 3.49 91.00 3.49C90.13 3.49 89.43 3.84 88.73 4.52L88.62 3.58L87.09 3.58L87.09 10.50L88.79 10.50L88.79 6.97C88.79 5.92 89.50 5.04 90.55 5.04C91.64 5.04 92.22 5.84 92.22 6.89L92.22 10.50Z"></path></g> <linearGradient data-v-1084b650="" gradientTransform="rotate(25)" id="00fd4686-9836-4763-4567-a028b26d52d3" x1="0%" y1="0%" x2="100%" y2="0%"><stop data-v-1084b650="" offset="0%" style="stop-color: rgb(0, 102, 120); stop-opacity: 1;"></stop> <stop data-v-1084b650="" offset="100%" style="stop-color: rgb(79, 168, 255); stop-opacity: 1;"></stop></linearGradient> <g data-v-1084b650="" id="bc1986aa-cf6a-35c2-c7c0-3534cd0826e6" fill="url(#00fd4686-9836-4763-4567-a028b26d52d3)" stroke="none" transform="matrix(0.10202953219413757,0,0,0.10202953219413757,40,134.69557189941406)"><svg xmlns="http://www.w3.org/2000/svg" viewBox="0 0 32 32"><path d="M17.572 23.933l4.106 7.095L32 13.189h-8.981V7.582L11.51.972 0 7.582v13.222l11.51 6.611 6.062-3.482zm10.96-8.744l-6.855 11.846-6.855-11.846h13.71z"></path></svg></g></svg>